<svg class="svg-icon" style="width: 1em; height: 1em;vertical-align: middle;fill: currentColor;overflow: hidden;" viewBox="0 0 1024 1024" version="1.1" xmlns="http://www.w3.org/2000/svg"><path d="M440.4 703.9c-29.8 0-54.1 24.3-54.1 54.1s24.3 54.1 54.1 54.1 54.1-24.2 54.1-54.1c0-29.9-24.3-54.1-54.1-54.1z m0 67.9c-7.7 0-13.9-6.2-13.9-13.9s6.2-13.9 13.9-13.9 13.9 6.2 13.9 13.9-6.2 13.9-13.9 13.9zM596.7 703.9c-29.8 0-54.1 24.3-54.1 54.1s24.3 54.1 54.1 54.1 54.1-24.2 54.1-54.1c0-29.9-24.3-54.1-54.1-54.1z m0 67.9c-7.7 0-13.9-6.2-13.9-13.9S589 744 596.7 744s13.9 6.2 13.9 13.9-6.2 13.9-13.9 13.9z"  /><path d="M433.6 476.2m-34 0a34 34 0 1 0 68 0 34 34 0 1 0-68 0Z"  /><path d="M610.3 476.2m-34 0a34 34 0 1 0 68 0 34 34 0 1 0-68 0Z"  /><path d="M903 408.7c-2.2-2.9-54.3-71.5-122.2-71.5-17 0-33.7 2.2-49 6.4 58.6-78.8 11-171.3-6.7-200.2-6.3-10.2-18.8-16.2-31.3-14.8-11.2 1.2-20.2 8.3-23.7 18.4-26.5 77.3-58.9 105.9-79.2 116.4-48.5-14.8-101.6-14.8-149.9-0.2-20.2-10.7-52.4-39.4-78.7-116.2-3.5-10.1-12.5-17.1-23.7-18.4-12.4-1.3-25 4.6-31.3 14.8-17.9 29.2-66.8 124.1-4 203.7-18.2-6.4-38.8-9.9-60.4-9.9-67.9 0-120 68.6-122.2 71.5l-9 12 9 12c2.2 2.9 54.3 71.5 122.2 71.5 13.6 0 27.1-1.4 39.9-4.2l30.7 188.4C303.5 708 298 730 298 753.3v2.4c0 79.7 64.9 144.6 144.6 144.6H581c79.7 0 144.6-64.9 144.6-144.6v-2.4c0-18.5-3.5-36.2-9.8-52.4l32.5-199.4c10.5 1.8 21.4 2.7 32.5 2.7 67.9 0 120-68.6 122.2-71.5l9-12-9-12z m-217.6 347c0 57.6-46.9 104.5-104.5 104.5H442.6c-57.6 0-104.5-46.9-104.5-104.5v-2.4c0-57.6 46.9-104.5 104.5-104.5H581c57.6 0 104.5 46.9 104.5 104.5v2.4z m95.4-291.6c-14.9 0-29.7-2.2-42.9-6.3l-22.1-6.9-32.7 200.2c-26.2-26.2-62.3-42.4-102.2-42.4H442.6c-36.6 0-70.1 13.7-95.6 36.2l-32.3-197.8-22.9 8.6c-14.7 5.5-31.6 8.4-49 8.4-33.5 0-64.1-27.1-79.6-43.4 15.4-16.3 46.1-43.4 79.6-43.4 26.2 0 51 6.5 68 17.9l17.9 12 10.7-18.6c4.1-7.2 9-14.4 14.6-21.3l11.9-14.9-14.3-12.6c-58.1-51.3-41.2-116.2-19.5-158.7 31.6 79.5 71.3 110.4 99.9 122.2l6.9 2.8 7.1-2.4c44.7-15.1 94.7-15.1 139.7 0.2l7.1 2.4 6.9-2.8c28.9-11.6 68.7-42.5 100.6-122.4 21.8 42.6 38.7 107.8-20 159.1l-14.4 12.6 11.8 15c4.8 6.1 8.8 11.8 12.3 17.7l10.2 16.8 17-9.8c16.9-9.7 39.5-15.1 63.6-15.1 33.4 0 64.1 27 79.5 43.3-15.5 16.3-46.3 43.4-79.5 43.4z"  /></svg>