<svg class="svg-icon" style="width: 1em; height: 1em;vertical-align: middle;fill: currentColor;overflow: hidden;" viewBox="0 0 1024 1024" version="1.1" xmlns="http://www.w3.org/2000/svg"><path d="M768 870.4H426.666667c-91.511467 0-171.707733-30.173867-238.353067-89.668267C108.6464 709.393067 68.266667 618.1376 68.266667 509.44c0-7.7824 0.3072-15.581867 0.887466-23.364267 5.376-87.466667 40.362667-164.0448 103.953067-227.6352C242.670933 188.8768 327.9872 153.6 426.666667 153.6s183.995733 35.2768 253.559466 104.840533c44.151467 44.151467 74.8544 94.958933 91.392 151.159467h82.551467a17.066667 17.066667 0 0 1 17.066667 17.066667v98.833066c10.1888 6.690133 19.950933 14.711467 29.149866 23.944534C937.1136 586.120533 955.733333 630.954667 955.733333 682.666667c0 51.746133-18.653867 96.341333-55.4496 132.488533C864.341333 851.746133 819.746133 870.4 768 870.4zM426.666667 187.733333c-89.2928 0-166.485333 31.914667-229.4272 94.839467-57.5488 57.5488-89.1904 126.7712-94.020267 205.7216l-0.017067 0.238933c-0.529067 6.9632-0.802133 13.943467-0.802133 20.906667 0 99.959467 35.549867 180.3776 108.663467 245.845333C271.240533 809.0112 343.790933 836.266667 426.666667 836.266667h341.333333c42.8544 0 78.2336-14.7968 108.151467-45.243734C906.8032 760.900267 921.6 725.521067 921.6 682.666667c0-42.939733-14.830933-78.609067-45.346133-109.1072-1.655467-1.655467-3.310933-3.242667-5.000534-4.8128V597.333333c0 51.729067-18.653867 96.324267-55.4496 132.488534C779.861333 766.395733 735.2832 785.066667 683.52 785.066667c-51.694933 0-96.529067-18.619733-133.239467-55.3472-36.164267-36.1472-54.493867-80.6912-54.493866-132.386134 0-51.592533 18.295467-96.392533 54.408533-133.137066C587.093333 427.895467 631.620267 409.6 682.666667 409.6h53.213866c-15.5136-46.882133-42.308267-89.514667-79.786666-127.0272C593.152 219.648 515.959467 187.733333 426.666667 187.733333z m256 256c-42.376533 0-77.824 14.592-108.356267 44.5952-29.815467 30.344533-44.3904 66.065067-44.3904 109.0048 0 42.922667 14.557867 78.318933 44.4928 108.253867C604.910933 736.1024 640.597333 750.933333 683.52 750.933333c42.871467 0 78.2336-14.7968 108.1344-45.243733C822.3232 675.549867 837.12 640.170667 837.12 597.333333v-153.6H682.666667z"  /><path d="M938.666667 460.8a33.9968 33.9968 0 0 1-24.132267-10.001067l-19.575467-19.575466a34.167467 34.167467 0 0 1-45.312-45.312l-20.4288-20.445867a34.133333 34.133333 0 1 1 48.264534-48.264533l85.333333 85.333333A34.133333 34.133333 0 0 1 938.666667 460.8z"  /><path d="M866.7648 365.824l48.264533 48.2816-53.76 53.76-48.264533-48.298667z"  /></svg>