<svg class="svg-icon" style="width: 1em; height: 1em;vertical-align: middle;fill: currentColor;overflow: hidden;" viewBox="0 0 1024 1024" version="1.1" xmlns="http://www.w3.org/2000/svg"><path d="M119.466667 1024c-47.786667 0-78.506667-27.306667-85.333334-71.68-20.48-10.24-34.133333-37.546667-34.133333-81.92 0-40.96 40.96-61.44 81.92-61.44 13.653333 0 30.72-17.066667 51.2-37.546667 136.533333-136.533333 208.213333-211.626667 208.213333-307.2C341.333333 372.053333 413.013333 0 750.933333 0c150.186667 0 273.066667 180.906667 273.066667 273.066667 0 334.506667-372.053333 402.773333-474.453333 402.773333-92.16 0-157.013333 64.853333-286.72 194.56l-13.653334 13.653333C211.626667 921.6 204.8 931.84 204.8 955.733333c0 40.96-54.613333 68.266667-85.333333 68.266667zM68.266667 952.32c3.413333 23.893333 20.48 37.546667 51.2 37.546667 17.066667 0 51.2-17.066667 51.2-34.133334 0-37.546667 17.066667-58.026667 54.613333-98.986666l13.653333-10.24c136.533333-136.533333 204.8-204.8 310.613334-204.8C641.706667 641.706667 989.866667 576.853333 989.866667 273.066667c0-78.506667-109.226667-238.933333-238.933334-238.933334-307.2 0-375.466667 344.746667-375.466666 430.08 0 109.226667-75.093333 187.733333-218.453334 331.093334-30.72 30.72-51.2 47.786667-75.093333 47.786666-3.413333 0-47.786667 0-47.786667 27.306667 0 30.72 6.826667 51.2 17.066667 51.2 3.413333 0 13.653333-10.24 17.066667-13.653333 13.653333-13.653333 34.133333-34.133333 58.026666-17.066667 6.826667 3.413333 10.24 13.653333 6.826667 23.893333-3.413333 6.826667-13.653333 10.24-23.893333 6.826667-3.413333 0-10.24 3.413333-17.066667 13.653333-6.826667 3.413333-13.653333 10.24-23.893333 17.066667z" fill="" /><path d="M426.666667 716.8c-10.24 0-17.066667-10.24-17.066667-20.48 0 0 0-13.653333-6.826667-23.893333-6.826667-6.826667-13.653333-10.24-27.306666-10.24-30.72 0-47.786667-3.413333-58.026667-13.653334-10.24-10.24-10.24-27.306667-10.24-40.96v-10.24c0-10.24 6.826667-17.066667 17.066667-17.066666s17.066667 6.826667 17.066666 17.066666V628.053333s6.826667 3.413333 34.133334 3.413334c23.893333 0 40.96 6.826667 54.613333 20.48 17.066667 20.48 17.066667 47.786667 13.653333 51.2 0 6.826667-6.826667 13.653333-17.066666 13.653333z" fill="" /></svg>