<svg class="svg-icon" style="width: 1em; height: 1em;vertical-align: middle;fill: currentColor;overflow: hidden;" viewBox="0 0 1024 1024" version="1.1" xmlns="http://www.w3.org/2000/svg"><path d="M815.5 361.6c-30.7-27.7-61.7-50.2-64.9-52.5-34.9-132.9-118.3-230.3-214-244.7-0.3 23.1-10.6 41.6-23.3 41.6s-23-18.7-23.3-42c-96.7 13-181.4 111-216.6 245.2-3.4 2.4-34.3 24.8-64.9 52.5-62.2 56.2-65.9 82.4-63.3 97.3 3.4 19.5 26.1 35.4 73.5 51.8 15.7 5.4 31 9.8 42.4 12.8 17.6 132 78.5 250.9 156.5 306.2L320 960h67.8l60.4-30.2 63.8 29.9 63.8-29.9 60.4 30.2H704l-97.7-130.2c78-55.3 138.9-174.2 156.5-306.2 11.4-3 26.7-7.4 42.4-12.8 47.4-16.4 70.1-32.4 73.5-51.8 2.7-14.9-1-41.2-63.2-97.4zM231.8 481.4c-46.9-15.9-54.3-26.9-55.1-28.2-0.2-2.4 0.6-20.2 53.1-67.6 11.5-10.4 23.3-20.2 33.4-28.3-4.7 28.6-7.2 58.5-7.2 89.2 0 14.4 0.5 28.7 1.6 42.9-7.9-2.2-16.8-4.9-25.8-8zM637.7 925l-61.5-30.8-64.2 30.1-64.2-30.1-61.5 30.8 59-78.7c21.4 10.5 43.8 16.2 66.7 16.2s45.3-5.7 66.7-16.2l59 78.7zM664 717.5c-21.5 35.6-46.8 64.7-73.2 84.1-26 19.2-52.5 28.9-78.8 28.9s-52.8-9.7-78.8-28.9c-26.4-19.4-51.7-48.5-73.2-84.1-45.8-75.6-72-174.4-72-271 0-90.1 22.9-176.4 64.4-243.1 19.4-31.1 41.8-56.4 66.5-75 15.2-11.4 30.9-20 46.9-25.7 1 2.3 2.1 4.5 3.2 6.6 10.1 18.3 26.3 28.8 44.3 28.8 17.9 0 34.1-10.4 44.2-28.5 1.1-1.9 2.1-3.9 3-6 15.7 5.9 31.1 14.6 46.1 26 24.5 18.8 46.7 44.1 65.8 75.2 41 66.5 63.6 152.4 63.6 241.8 0 96.5-26.2 195.2-72 270.9z m183.3-264.3c-0.8 1.4-8.2 12.4-55.1 28.2-9 3-17.9 5.7-25.8 8 1.1-14.2 1.6-28.5 1.6-42.9 0-30.7-2.5-60.6-7.2-89.3 10.1 8.1 21.9 17.9 33.4 28.3 52.5 47.5 53.3 65.3 53.1 67.7zM512 159.5c17.7 0 32 14.3 32 32s-14.3 32-32 32-32-14.3-32-32 14.3-32 32-32zM576 592c-14 0-27.2-9.2-41.2-19-6.5-4.6-18.7-13.1-22.9-13.2-4.2 0.2-16.3 8.7-22.8 13.2-14 9.8-27.2 19-41.2 19-6.7 0-18.8-1.9-46.8-18.3-14.2-8.3-25.9-16.5-26.4-16.8l18.3-26.2c22.2 15.5 47.8 29.2 54.8 29.4 4.2-0.2 16.3-8.7 22.8-13.2 14-9.8 27.2-19 41.2-19s27.2 9.2 41.2 19c6.5 4.6 18.7 13.1 22.8 13.2 7-0.2 32.7-13.9 54.8-29.4l18.3 26.2c-0.5 0.3-12.2 8.5-26.4 16.8-27.7 16.4-39.8 18.3-46.5 18.3z m64-95.7c-14 0-27.2-9.2-41.2-19-7-4.9-18.7-13.1-22.8-13.2-4.2 0.2-15.8 8.4-22.8 13.2-14 9.8-27.2 19-41.2 19s-27.2-9.2-41.2-19c-7-4.9-18.7-13.1-22.9-13.2-4.2 0.2-15.8 8.4-22.8 13.2-14 9.8-27.2 19-41.2 19-6.7 0-18.8-1.9-46.8-18.3-14.2-8.3-25.9-16.5-26.4-16.8L329 435c22.2 15.5 47.8 29.2 54.8 29.4 4.2-0.2 15.8-8.4 22.8-13.2 14-9.8 27.2-19 41.2-19s27.2 9.2 41.2 19c7 4.9 18.7 13.1 22.9 13.2 4.2-0.2 15.8-8.4 22.8-13.2 14-9.8 27.2-19 41.2-19s27.2 9.2 41.2 19c7 4.9 18.7 13.1 22.8 13.2 7-0.2 32.7-13.9 54.8-29.4l18.3 26.2c-0.5 0.3-12.2 8.5-26.4 16.8-27.8 16.4-39.9 18.3-46.6 18.3zM512 367.5c-51.6 0-100.4-14.4-137.2-40.4-7.2-5.1-8.9-15.1-3.8-22.3 5.1-7.2 15.1-8.9 22.3-3.8 31.5 22.3 73.7 34.6 118.8 34.6s87.3-12.3 118.8-34.6c7.2-5.1 17.2-3.4 22.3 3.8 5.1 7.2 3.4 17.2-3.8 22.3-37 26-85.8 40.4-137.4 40.4z"  /></svg>