<svg class="svg-icon" style="width: 1em; height: 1em;vertical-align: middle;fill: currentColor;overflow: hidden;" viewBox="0 0 1024 1024" version="1.1" xmlns="http://www.w3.org/2000/svg"><path d="M969.94384 137.6c-46.4-27.2-80-28.8-108.8-19.2L768.34384 193.6h1.6c36.8-30.4 115.2-107.2 193.6-49.6 116.8 60.8 16 145.6 16 145.6s107.2-83.2-9.6-152zM856.34384 315.2c86.4 97.6-38.4 140.8-38.4 140.8s131.2-40 48-145.6c-51.2-64-97.6-62.4-142.4-48l-38.4 22.4c51.2-17.6 128-36.8 171.2 30.4zM489.94384 715.2s139.2-129.6 171.2-145.6c16-16 24-30.4 30.4-22.4s-8 16-8 22.4c0 0 24-16 24 8s-70.4 123.2-84.8 137.6c-16 16-84.8 38.4-116.8 46.4l-16-46.4" fill="#333333" /><path d="M365.806001 322.503932a16 24 75.977 1 0 46.569529-11.630946 16 24 75.977 1 0-46.569529 11.630946Z" fill="#333333" /><path d="M251.54384 912c-9.6 0-17.6 0-27.2-1.6-67.2 0-185.6-56-188.8-166.4-51.2-73.6-89.6-227.2 201.6-435.2l32-22.4-1.6 40c-1.6 24 4.8 92.8 38.4 116.8 17.6 12.8 43.2 12.8 75.2 1.6l76.8-27.2-56 59.2c-1.6 1.6-96 100.8-129.6 142.4 4.8 9.6 8 22.4 4.8 40 9.6 16 24 38.4 28.8 54.4 12.8 1.6 35.2 9.6 51.2 30.4 43.2-24 121.6-59.2 160-43.2 11.2 4.8 19.2 14.4 22.4 27.2 4.8 24-19.2 56-35.2 72-48 52.8-140.8 112-252.8 112z m-20.8-550.4C56.34384 494.4-2.85616 624 69.14384 724.8l4.8 8v6.4c0 88 99.2 134.4 152 134.4h1.6c99.2 9.6 187.2-38.4 236.8-84.8 27.2-25.6 36.8-46.4 38.4-52.8-14.4-6.4-78.4 11.2-140.8 49.6l-19.2 12.8-8-20.8c-9.6-25.6-33.6-25.6-36.8-25.6h-8l-19.2-19.2v-8c-1.6-6.4-14.4-30.4-27.2-51.2l-4.8-6.4 1.6-8c4.8-19.2-3.2-27.2-3.2-28.8l-14.4-11.2 12.8-12.8c14.4-19.2 65.6-73.6 102.4-113.6-19.2-1.6-35.2-6.4-51.2-17.6-38.4-27.2-51.2-78.4-56-113.6z" fill="#333333" /><path d="M246.74384 657.6c9.6 16 24 38.4 28.8 54.4 12.8 1.6 35.2 9.6 51.2 30.4 11.2-6.4 27.2-14.4 41.6-20.8-1.6-1.6-1.6-4.8-3.2-6.4-8-16 30.4-46.4 30.4-46.4-30.4-8-62.4 54.4-62.4 54.4-16-30.4 30.4-60.8 30.4-60.8-24-16-54.4 46.4-54.4 46.4-30.4-38.4 16-76.8 30.4-76.8 16 0 38.4 16 38.4 16 0-8-8-22.4-30.4-30.4-20.8-9.6-59.2 28.8-59.2 28.8-8-22.4 24-46.4 46.4-54.4s38.4 22.4 38.4 22.4c0-16-8-30.4-30.4-38.4s-46.4 16-46.4 16v-8l24-30.4 25.6-49.6c-30.4 33.6-80 84.8-102.4 112 1.6 11.2 4.8 24 3.2 41.6z" fill="#333333" /><path d="M246.74384 630.4l-1.6-6.4c-6.4-20.8-27.2-75.2-44.8-81.6l-3.2-1.6c-27.2-9.6-100.8-32-100.8-78.4v-1.6l1.6-1.6c11.2-11.2 102.4-116.8 126.4-116.8h4.8l-1.6 4.8c0 1.6-14.4 81.6 52.8 118.4 44.8 28.8 89.6 8 89.6 8l14.4-6.4-8 12.8c-3.2 4.8-86.4 115.2-124.8 145.6l-4.8 4.8zM105.94384 464c1.6 40 68.8 62.4 94.4 70.4l3.2 1.6c20.8 6.4 41.6 62.4 48 81.6 32-28.8 89.6-104 112-131.2-17.6 4.8-51.2 9.6-84.8-12.8-60.8-33.6-59.2-100.8-56-120-22.4 8-81.6 70.4-116.8 110.4z" fill="#333333" /><path d="M32.34384 704h-3.2l-1.6-3.2c0-1.6-46.4-118.4 48-211.2l4.8-3.2 1.6 6.4s8 22.4 52.8 43.2c11.2 4.8 22.4 9.6 32 14.4 38.4 14.4 73.6 28.8 86.4 72l8 43.2H256.34384c-1.6 0-100.8 8-131.2 22.4-27.2 14.4-75.2 16-92.8 16z m44.8-204.8c-78.4 81.6-48 179.2-43.2 196.8 17.6 0 62.4-1.6 88-14.4 27.2-14.4 108.8-20.8 129.6-22.4l-6.4-35.2c-11.2-38.4-44.8-52.8-81.6-67.2l-33.6-14.4c-33.6-17.6-48-33.6-52.8-43.2z" fill="#333333" /><path d="M179.54384 888c-1.6 0-104-32-128-140.8v-3.2l3.2-1.6S109.14384 720 131.54384 704c3.2-3.2 8-6.4 12.8-9.6 22.4-17.6 54.4-43.2 115.2-30.4h1.6l1.6 1.6c3.2 4.8 32 48 32 64v1.6l-1.6 1.6s-46.4 38.4-52.8 59.2c-17.6 44.8-38.4 96-60.8 96z m-120-139.2c22.4 97.6 112 129.6 120 131.2 9.6 0 25.6-17.6 49.6-89.6 8-22.4 46.4-54.4 54.4-62.4-1.6-12.8-20.8-43.2-28.8-56-56-11.2-84.8 11.2-107.2 28.8-4.8 3.2-8 6.4-12.8 9.6-20.8 14.4-64 33.6-75.2 38.4z" fill="#333333" /><path d="M267.54384 899.2c-16 0-32-3.2-43.2-11.2l-3.2-3.2 3.2-3.2s8-8 22.4-36.8c4.8-9.6 8-24 9.6-38.4 6.4-33.6 12.8-72 46.4-78.4h3.2c1.6 0 49.6 16 49.6 41.6v3.2c-1.6 1.6-36.8 51.2 14.4 94.4l4.8 3.2-4.8 3.2c-6.4 0-57.6 25.6-102.4 25.6z m-36.8-16c38.4 20.8 107.2-6.4 126.4-16-46.4-43.2-17.6-91.2-12.8-99.2-1.6-16-30.4-28.8-43.2-33.6-28.8 4.8-33.6 40-40 72-3.2 16-4.8 30.4-11.2 41.6-8 19.2-14.4 30.4-19.2 35.2zM581.14384 300.8l-70.4 40 8 4.8c-19.2 8-32 14.4-36.8 19.2-9.6 9.6-107.2 89.6-150.4 112-11.2 4.8-27.2 1.6-41.6-11.2-24-20.8-43.2-65.6-25.6-128 20.8-12.8 92.8-54.4 153.6-65.6 1.6 0 4.8-1.6 6.4-1.6l-27.2 14.4 65.6-4.8 1.6-3.2s3.2 0 8 1.6l27.2-1.6c19.2-1.6 86.4-8 144-16l-22.4 19.2h-1.6c25.6-6.4 54.4-17.6 80-30.4 41.6-22.4 72-65.6 115.2-80l40-33.6-148.8 72c-12.8 6.4-67.2 14.4-124.8 20.8l-12.8-28.8c-22.4 8-81.6 19.2-156.8 33.6-80 16-169.6 73.6-174.4 75.2l-6.4 3.2-1.6 6.4c-27.2 84.8 1.6 145.6 35.2 176 17.6 14.4 36.8 22.4 56 22.4 9.6 0 19.2-1.6 28.8-6.4 48-24 148.8-107.2 160-118.4 6.4-4.8 38.4-17.6 64-27.2l41.6-16-22.4-9.6 92.8-54.4c-22.4 8-40 14.4-48 14.4 1.6 0-22.4 1.6-56 1.6z m-70.4 91.2z" fill="#333333" /><path d="M606.74384 291.2c9.6 0 17.6-1.6 27.2-3.2 30.4-4.8 60.8-17.6 89.6-27.2l30.4-17.6h-32c-6.4 6.4-12.8 9.6-16 11.2 0 1.6-44.8 24-99.2 36.8z" fill="#333333" /><path d="M814.74384 168c-43.2 16-73.6 57.6-115.2 80-25.6 14.4-54.4 24-80 30.4l-22.4 12.8h11.2c54.4-12.8 99.2-35.2 99.2-35.2 3.2-1.6 9.6-4.8 16-11.2h-1.6l92.8-76.8zM464.34384 275.2v3.2h8c-4.8-3.2-8-3.2-8-3.2z" fill="#333333" /><path d="M606.74384 291.2c-6.4 1.6-11.2 3.2-17.6 4.8l-9.6 4.8c33.6 0 57.6-1.6 57.6-1.6 8 0 25.6-6.4 48-14.4l38.4-22.4c-28.8 9.6-59.2 22.4-89.6 27.2-9.6 1.6-17.6 1.6-27.2 1.6z" fill="#333333" /><path d="M606.74384 291.2h-11.2l-6.4 3.2c6.4 0 12.8-1.6 17.6-3.2z" fill="#333333" /></svg>