<svg class="svg-icon" style="width: 1.0009765625em; height: 1em;vertical-align: middle;fill: currentColor;overflow: hidden;" viewBox="0 0 1025 1024" version="1.1" xmlns="http://www.w3.org/2000/svg"><path d="M665.6 904.533333h-273.066667c-116.053333 0-201.386667-88.746667-204.8-215.04l-3.413333-3.413333c-34.133333-34.133333-81.92-78.506667-81.92-157.013333 0-85.333333 88.746667-136.533333 153.6-136.533334 95.573333 0 136.533333 61.44 167.253333 109.226667 6.826667 10.24 13.653333 20.48 20.48 27.306667 68.266667-64.853333 215.04-170.666667 324.266667-170.666667 122.88 0 256 85.333333 256 221.866667s-208.213333 324.266667-358.4 324.266666z m-409.6-477.866666c-40.96 0-119.466667 34.133333-119.466667 102.4 0 61.44 37.546667 98.986667 71.68 133.12l10.24 10.24c3.413333 3.413333 3.413333 6.826667 3.413334 13.653333 0 109.226667 71.68 187.733333 170.666666 187.733333h273.066667c129.706667 0 324.266667-174.08 324.266667-290.133333 0-116.053333-116.053333-187.733333-221.866667-187.733333-95.573333 0-238.933333 105.813333-300.373333 163.84 13.653333 23.893333 17.066667 51.2 3.413333 81.92-13.653333 37.546667-47.786667 61.44-78.506667 61.44-10.24 0-17.066667-6.826667-17.066666-17.066667s6.826667-17.066667 17.066666-17.066667c17.066667 0 37.546667-17.066667 47.786667-40.96 3.413333-10.24 13.653333-37.546667-6.826667-58.026666-13.653333-13.653333-23.893333-27.306667-34.133333-44.373334-34.133333-51.2-68.266667-98.986667-143.36-98.986666z" fill="" /><path d="M614.4 443.733333c-3.413333 0-10.24 0-13.653333-3.413333-13.653333-13.653333-23.893333-27.306667-37.546667-44.373333-34.133333-47.786667-78.506667-102.4-136.533333-102.4C378.88 290.133333 307.2 344.746667 307.2 409.6c0 10.24-6.826667 17.066667-17.066667 17.066667S273.066667 419.84 273.066667 409.6c0-88.746667 92.16-153.6 153.6-153.6 75.093333 0 126.293333 64.853333 163.84 116.053333 13.653333 17.066667 23.893333 30.72 34.133333 40.96 6.826667 6.826667 6.826667 17.066667 0 23.893334 0 6.826667-6.826667 6.826667-10.24 6.826666zM597.333333 324.266667c-3.413333 0-10.24 0-13.653333-3.413334-6.826667-6.826667-6.826667-17.066667 0-23.893333 30.72-30.72 17.066667-64.853333-3.413333-122.88-17.066667-51.2-40.96-109.226667 3.413333-153.6 6.826667-6.826667 17.066667-6.826667 23.893333 0s6.826667 17.066667 0 23.893333c-27.306667 27.306667-17.066667 61.44 3.413334 116.053334 20.48 51.2 40.96 112.64-3.413334 157.013333 0 6.826667-6.826667 6.826667-10.24 6.826667zM768 324.266667c-3.413333 0-10.24 0-13.653333-3.413334-6.826667-6.826667-6.826667-17.066667 0-23.893333 30.72-30.72 17.066667-64.853333-3.413334-122.88-17.066667-51.2-40.96-109.226667 3.413334-153.6 6.826667-6.826667 17.066667-6.826667 23.893333 0s6.826667 17.066667 0 23.893333c-27.306667 27.306667-17.066667 61.44 3.413333 116.053334 20.48 51.2 40.96 112.64-3.413333 157.013333 0 6.826667-6.826667 6.826667-10.24 6.826667zM938.666667 324.266667c-3.413333 0-10.24 0-13.653334-3.413334-6.826667-6.826667-6.826667-17.066667 0-23.893333 30.72-30.72 17.066667-64.853333-3.413333-122.88-17.066667-51.2-40.96-109.226667 3.413333-153.6 6.826667-6.826667 17.066667-6.826667 23.893334 0s6.826667 17.066667 0 23.893333c-27.306667 27.306667-17.066667 61.44 3.413333 116.053334 20.48 51.2 40.96 112.64-3.413333 157.013333 0 6.826667-6.826667 6.826667-10.24 6.826667zM546.133333 1006.933333c-300.373333 0-464.213333-102.4-471.04-105.813333-6.826667-3.413333-6.826667-10.24-6.826666-17.066667 3.413333-6.826667 10.24-13.653333 17.066666-13.653333h921.6c6.826667 0 13.653333 3.413333 17.066667 13.653333 3.413333 6.826667 0 13.653333-6.826667 20.48-6.826667 0-170.666667 102.4-471.04 102.4z m-385.706666-102.4c71.68 30.72 204.8 68.266667 385.706666 68.266667 180.906667 0 314.026667-37.546667 385.706667-68.266667H160.426667z" fill="" /><path d="M324.266667 324.266667c-3.413333 0-10.24 0-13.653334-3.413334l-34.133333-34.133333c-6.826667 0-13.653333 3.413333-20.48 3.413333C228.693333 290.133333 204.8 266.24 204.8 238.933333c0-23.893333 13.653333-40.96 37.546667-47.786666 6.826667-20.48 27.306667-37.546667 47.786666-37.546667 27.306667 0 51.2 23.893333 51.2 51.2 0 6.826667-3.413333 13.653333-3.413333 20.48l34.133333 34.133333c6.826667 6.826667 6.826667 17.066667 0 23.893334s-17.066667 6.826667-23.893333 0L303.786667 242.346667c-6.826667-6.826667-6.826667-17.066667 0-23.893334 0-3.413333 3.413333-10.24 3.413333-13.653333 0-10.24-6.826667-17.066667-17.066667-17.066667S273.066667 194.56 273.066667 204.8s-6.826667 17.066667-17.066667 17.066667-17.066667 6.826667-17.066667 17.066666c0 13.653333 20.48 20.48 30.72 13.653334 3.413333-3.413333 6.826667-3.413333 13.653334-3.413334 3.413333 0 10.24 3.413333 13.653333 3.413334L341.333333 296.96c6.826667 6.826667 6.826667 17.066667 0 23.893333-6.826667 3.413333-13.653333 3.413333-17.066666 3.413334zM119.466667 494.933333c-3.413333 0-10.24 0-13.653334-3.413333l-34.133333-34.133333c-6.826667 3.413333-13.653333 3.413333-20.48 3.413333-27.306667 0-51.2-23.893333-51.2-51.2 0-23.893333 13.653333-40.96 37.546667-47.786667 6.826667-20.48 27.306667-37.546667 47.786666-37.546666 27.306667 0 51.2 23.893333 51.2 51.2 0 6.826667-3.413333 13.653333-3.413333 20.48l34.133333 34.133333c6.826667 6.826667 6.826667 17.066667 0 23.893333s-17.066667 6.826667-23.893333 0L98.986667 409.6c-6.826667-6.826667-6.826667-17.066667 0-23.893333 0 0 3.413333-6.826667 3.413333-10.24 0-10.24-6.826667-17.066667-17.066667-17.066667s-17.066667 6.826667-17.066666 17.066667-6.826667 17.066667-17.066667 17.066666-17.066667 6.826667-17.066667 17.066667c0 13.653333 20.48 20.48 30.72 13.653333 3.413333-3.413333 6.826667-3.413333 13.653334-3.413333 3.413333 0 10.24 3.413333 13.653333 3.413333L136.533333 467.626667c6.826667 6.826667 6.826667 17.066667 0 23.893333-6.826667 3.413333-13.653333 3.413333-17.066666 3.413333z" fill="" /><path d="M733.866667 802.133333c-3.413333 0-6.826667 0-10.24-3.413333-6.826667-3.413333-6.826667-13.653333-6.826667-20.48l30.72-81.92c3.413333-6.826667 0-17.066667-3.413333-20.48s-13.653333-10.24-20.48-10.24h-58.026667c-10.24 0-17.066667-6.826667-17.066667-17.066667s6.826667-17.066667 17.066667-17.066666h58.026667c20.48 0 37.546667 10.24 47.786666 23.893333s13.653333 34.133333 6.826667 54.613333l-10.24 23.893334 54.613333-40.96c17.066667-10.24 27.306667-30.72 27.306667-51.2s-6.826667-37.546667-20.48-54.613334l-75.093333-68.266666c-6.826667-6.826667-6.826667-17.066667 0-23.893334 6.826667-6.826667 17.066667-6.826667 23.893333 0l78.506667 68.266667c20.48 20.48 34.133333 51.2 30.72 81.92s-17.066667 58.026667-40.96 75.093333l-102.4 75.093334c-3.413333 6.826667-6.826667 6.826667-10.24 6.826666z" fill="" /></svg>