<?xml version="1.0" encoding="utf-8"?>
<!-- Generator: Adobe Illustrator 23.0.1, SVG Export Plug-In . SVG Version: 6.00 Build 0)  -->
<svg version="1.1" id="Capa_1" xmlns="http://www.w3.org/2000/svg" xmlns:xlink="http://www.w3.org/1999/xlink" x="0px" y="0px"
	 viewBox="0 0 32.9 32.8" style="enable-background:new 0 0 32.9 32.8;" xml:space="preserve">
<path d="M31.9,10.2c-0.6-0.6-1.5-1-2.4-1h-0.1V9.1c0-1.9-1.5-3.4-3.4-3.4c-1.9,0-3.4,1.5-3.4,3.4c0,0.9,0.3,1.7,0.9,2.3l-0.9,0.9
	c-1.5-1.9-3.7-3.1-6.2-3.4c-1.6-0.2-3.2-0.2-4.8,0.1c-1.7,0.3-3.3,1-4.8,1.9c-2.6,1.7-6,5-7,11.4c-0.4,2.3,1.2,4.4,3.5,4.8
	c0.2,0,0.4,0.1,0.7,0.1H17h0.2c3.7,0,4.8-3.2,5.8-6.2c0.3-0.9,0.6-1.9,1-2.8l3.1-3.1c1.4,1.3,3.5,1.2,4.8-0.2
	C33.2,13.5,33.1,11.4,31.9,10.2L31.9,10.2z M13,25.3H4.2c-0.7,0-1.4-0.3-1.8-0.8c-0.2-0.3-0.4-0.6-0.5-0.9c-0.1-0.3-0.1-0.7-0.1-1
	c0.9-5.7,3.8-8.7,6.1-10.1c2-1.2,4.2-1.9,6.5-1.9c0.6,0,1.1,0,1.7,0.1c2,0.2,3.9,1.3,5.1,2.9l-0.9,0.9c-0.9,0.4-1.8,0.7-2.7,1
	l-0.1,0c-3.1,1-6.2,2-6.2,5.8C11.4,22.8,12,24.2,13,25.3z M18.2,17.3c0.8-0.3,1.7-0.6,2.5-0.9l1.4,1.4c-0.4,0.8-0.6,1.7-0.9,2.5
	c-0.8,2.6-1.6,5-4,5c-1.1,0-2.1-0.4-2.8-1.2l0,0c-0.7-0.7-1.2-1.8-1.2-2.8C13.3,18.9,15.7,18.1,18.2,17.3z M28.1,13.2
	c-0.2-0.5-0.7-0.7-1.2-0.5c-0.1,0-0.2,0.1-0.3,0.2l-3.3,3.3l-1-1l3.3-3.3c0.1-0.1,0.1-0.2,0.2-0.3c0.2-0.5,0-1-0.4-1.2c0,0,0,0,0,0
	c-0.1,0-0.1-0.1-0.2-0.1l0,0c-0.1-0.1-0.1-0.1-0.2-0.2c-0.6-0.6-0.6-1.6,0-2.2s1.6-0.6,2.2,0c0.6,0.6,0.6,1.6,0,2.2c0,0,0,0,0,0
	L27,10.2l1.3,1.3l0.1-0.1c0.6-0.6,1.6-0.6,2.2,0c0.6,0.6,0.6,1.6,0,2.2c-0.6,0.6-1.6,0.6-2.2,0c-0.1-0.1-0.1-0.1-0.2-0.2l0,0
	C28.2,13.4,28.2,13.3,28.1,13.2L28.1,13.2z"/>
</svg>
