<svg class="svg-icon" style="width: 1em;height: 1em;vertical-align: middle;fill: currentColor;overflow: hidden;" viewBox="0 0 1024 1024" version="1.1" xmlns="http://www.w3.org/2000/svg"><path d="M951.36 497.92A584 584 0 0 0 544 123.84a421.76 421.76 0 0 0-413.76 128 237.76 237.76 0 0 0-52.48 177.28C26.24 659.2 142.08 715.2 254.08 768a689.28 689.28 0 0 1 111.68 64 407.36 407.36 0 0 0 235.52 80.32 316.48 316.48 0 0 0 83.52-10.88c71.04-19.2 169.92-73.92 236.8-226.24h-1.6l2.88-3.52a197.12 197.12 0 0 0 28.48-173.76zM175.68 295.68a355.84 355.84 0 0 1 352-109.44 515.84 515.84 0 0 1 362.24 330.24 132.16 132.16 0 0 1-19.2 117.12 203.84 203.84 0 0 1-152.32 79.68c-69.76 7.36-104.96-15.36-163.52-53.12a789.76 789.76 0 0 0-309.44-128 146.24 146.24 0 0 1-103.36-102.4 174.08 174.08 0 0 1 33.6-134.08z m492.48 544a320 320 0 0 1-264.64-59.52 752.32 752.32 0 0 0-121.6-68.48C193.92 668.8 129.92 637.76 128 533.12a256 256 0 0 0 97.6 61.12h4.8a728.32 728.32 0 0 1 289.6 118.08c53.44 34.56 100.48 64 172.8 64a256 256 0 0 0 32 0 266.56 266.56 0 0 0 64-11.84 258.24 258.24 0 0 1-120.64 74.88z"  /><path d="M390.08 484.16a121.92 121.92 0 1 0-121.92-121.92 122.24 122.24 0 0 0 121.92 121.92z m0-179.52a57.92 57.92 0 1 1-57.92 57.6 57.92 57.92 0 0 1 57.92-57.6z"  /></svg>